#!OML:ASF G:\JayActor3\Patient Classification 1\Patient 1\Session 2\male.ASF
:FULLY-SPECIFIED
:DEGREES
1059
root -15.0253 16.1628 -7.55354 1083.14 33.0678 -4.54817
lowerback 13.0826 -6.37164 -6.43924
upperback 5.27157 -9.08672 0.161682
thorax -0.664022 -4.60754 4.87183
lowerneck -7.95078 -6.99849 -7.60703
upperneck 11.4437 -10.4117 14.2545
head 5.92649 -4.53168 4.91103
rclavicle 7.55382e-015 3.02153e-014
rhumerus -29.765 24.903 -63.8405
rradius 50.1735
rwrist -6.00754
rhand -25.241 9.6237
rfingers 7.12502
rthumb 1.27876 -20.3522
lclavicle 7.55382e-015 3.02153e-014
lhumerus 38.6598 -26.4456 43.7045
lradius 79.607
lwrist 21.164
lhand -15.2485 14.9992
lfingers 7.12502
lthumb 10.9251 44.695
rfemur -51.2478 -5.69595 32.5197
rtibia 55.3254
rfoot -28.1743 -4.45663
rtoes -18.1576
lfemur -7.35274 11.2876 -34.0898
ltibia 28.7488
lfoot -24.3956 16.5178
ltoes -6.23372
1060
root -14.843 16.2134 -7.51685 1083.29 32.9671 -4.42931
lowerback 12.3186 -6.78556 -6.74944
upperback 4.90858 -9.64668 0.13184
thorax -0.518389 -4.89262 4.97952
lowerneck -7.9282 -7.18476 -7.72903
upperneck 12.5558 -10.7482 13.9793
head 6.29761 -4.68321 4.81145
rclavicle -1.31595e-013 2.06736e-014
rhumerus -31.6699 25.5256 -64.8298
rradius 49.8792
rwrist -5.93438
rhand -25.0362 9.5305
rfingers 7.12502
rthumb 1.47663 -20.4441
lclavicle -1.31595e-013 2.06736e-014
lhumerus 38.8835 -28.4912 43.6986
lradius 79.4545
lwrist 20.984
lhand -14.784 14.9797
lfingers 7.12502
lthumb 11.3731 44.6513
rfemur -50.4742 -6.55772 34.1943
rtibia 55.1461
rfoot -27.7831 -2.02416
rtoes -20.3955
lfemur -5.82199 12.403 -34.301
ltibia 26.6401
lfoot -23.0367 15.1608
ltoes -7.12581
1061
root -14.6608 16.2601 -7.47887 1083.5 32.9171 -4.20884
lowerback 11.5499 -7.22149 -7.10889
upperback 4.54532 -10.2361 0.0827158
thorax -0.354376 -5.19262 5.08135
lowerneck -7.9089 -7.3488 -7.83119
upperneck 13.5966 -11.0408 13.6756
head 6.64219 -4.81862 4.70272
rclavicle 5.36719e-014 2.22639e-014
rhumerus -33.4995 25.8831 -65.6676
rradius 49.6265
rwrist -5.79681
rhand -24.6962 9.52318
rfingers 7.12502
rthumb 1.80502 -20.4489
lclavicle 5.36719e-014 2.22639e-014
lhumerus 39.0476 -30.5268 43.7793
lradius 79.3009
lwrist 20.7799
lhand -14.2488 14.9068
lfingers 7.12502
lthumb 11.8892 44.5493
rfemur -49.6177 -7.36102 35.6215
rtibia 54.9345
rfoot -27.3677 0.4474
rtoes -22.0807
lfemur -4.35197 13.5967 -34.5384
ltibia 24.6683
lfoot -21.5383 13.6023
ltoes -8.10828
1062
root -14.4787 16.3021 -7.43956 1083.76 32.9255 -3.87944
lowerback 10.7619 -7.68681 -7.51321
upperback 4.18503 -10.8618 0.0102817
thorax -0.160645 -5.51127 5.1666
lowerneck -7.88286 -7.4899 -7.8964
upperneck 14.5316 -11.2868 13.3419
head 6.94543 -4.93723 4.58203
rclavicle 5.68524e-014 2.70347e-014
rhumerus -35.2331 25.9694 -66.3259
rradius 49.461
rwrist -5.66098
rhand -24.2886 9.49558
rfingers 7.12502
rthumb 2.19864 -20.4728
lclavicle 5.68524e-014 2.70347e-014
lhumerus 39.113 -32.528 43.9769
lradius 79.1857
lwrist 20.5619
lhand -13.6673 14.7774
lfingers 7.12502
lthumb 12.4499 44.3866
rfemur -48.7012 -8.09462 36.7826
rtibia 54.7299
rfoot -26.9583 2.67464
rtoes -23.1975
lfemur -2.95527 14.8018 -34.8146
ltibia 22.8536
lfoot -19.9353 11.8958
ltoes -9.13014
1063
root -14.2968 16.3385 -7.39888 1084.1 32.9894 -3.4313
lowerback 9.96765 -8.1768 -7.99706
upperback 3.8127 -11.5208 -0.0585513
thorax 0.0530622 -5.84722 5.28091
lowerneck -7.82692 -7.60525 -7.94279
upperneck 15.3356 -11.4743 12.9614
head 7.19276 -5.03713 4.44894
rclavicle -6.16232e-014 1.43125e-014
rhumerus -36.8599 25.805 -66.7307
rradius 49.4031
rwrist -5.54766
rhand -23.8399 9.45875
rfingers 7.12502
rthumb 2.63202 -20.5048
lclavicle -6.16232e-014 1.43125e-014
lhumerus 39.0195 -34.4621 44.3797
lradius 79.1315
lwrist 20.3439
lhand -13.048 14.6127
lfingers 7.12502
lthumb 13.0469 44.1847
rfemur -47.7433 -8.76006 37.6707
rtibia 54.5688
rfoot -26.5932 4.3877
rtoes -23.8753
lfemur -1.63742 15.9841 -35.1451
ltibia 21.2068
lfoot -18.2612 10.0761
ltoes -10.1709
1064
root -14.1148 16.3685 -7.35727 1084.5 33.1115 -2.87525
lowerback 9.17799 -8.69098 -8.54202
upperback 3.42715 -12.21 -0.120012
thorax 0.278631 -6.1981 5.41733
lowerneck -7.74592 -7.70256 -7.97315
upperneck 16.0229 -11.6134 12.5272
head 7.38955 -5.12305 4.3005
rclavicle 2.78299e-015 -4.77083e-015
rhumerus -38.3849 25.4071 -66.8674
rradius 49.4685
rwrist -5.48766
rhand -23.4075 9.37743
rfingers 7.12502
rthumb 3.04956 -20.5805
lclavicle 2.78299e-015 -4.77083e-015
lhumerus 38.7378 -36.3239 45.0217
lradius 79.1586
lwrist 20.1639
lhand -12.4544 14.4372
lfingers 7.12502
lthumb 13.6191 43.9717
rfemur -46.7477 -9.37535 38.2976
rtibia 54.476
rfoot -26.3375 5.41447
rtoes -24.264
lfemur -0.384716 17.1152 -35.5222
ltibia 19.7252
lfoot -16.5427 8.17193
ltoes -11.1148
1065
root -13.9318 16.3916 -7.31458 1084.95 33.2784 -2.22127
lowerback 8.39263 -9.22339 -9.13461
upperback 3.02926 -12.9192 -0.170464
thorax 0.515508 -6.55849 5.56966
lowerneck -7.64711 -7.79418 -7.99439
upperneck 16.6169 -11.7218 12.0359
head 7.54626 -5.20297 4.13471
rclavicle 2.34566e-014 2.70347e-014
rhumerus -39.8203 24.8278 -66.7427
rradius 49.6617
rwrist -5.47432
rhand -23.0695 9.22098
rfingers 7.12502
rthumb 3.37594 -20.732
lclavicle 2.34566e-014 2.70347e-014
lhumerus 38.2405 -38.0991 45.9552
lradius 79.2549
lwrist 20.0115
lhand -11.9305 14.2799
lfingers 7.12502
lthumb 14.1239 43.7799
rfemur -45.7104 -9.95635 38.6765
rtibia 54.4613
rfoot -26.2148 5.73631
rtoes -24.5853
lfemur 0.82557 18.1939 -35.9397
ltibia 18.3922
lfoot -14.798 6.20553
ltoes -11.9391
1066
root -13.7476 16.407 -7.27088 1085.44 33.4796 -1.48311
lowerback 7.61206 -9.7666 -9.75775
upperback 2.61951 -13.6364 -0.206636
thorax 0.760345 -6.92192 5.73066
lowerneck -7.53474 -7.89731 -8.02634
upperneck 17.1404 -11.8256 11.5011
head 7.67559 -5.28858 3.95638
rclavicle 9.93923e-015 -9.54166e-015
rhumerus -41.1656 24.1132 -66.3665
rradius 49.9649
rwrist -5.52908
rhand -22.8242 9.0389
rfingers 7.12502
rthumb 3.61285 -20.9102
lclavicle 9.93923e-015 -9.54166e-015
lhumerus 37.5167 -39.7915 47.1938
lradius 79.4218
lwrist 19.9135
lhand -11.5155 14.1653
lfingers 7.12502
lthumb 14.5238 43.6369
rfemur -44.6289 -10.4924 38.8114
rtibia 54.5165
rfoot -26.2118 5.53542
rtoes -24.8022
lfemur 2.01461 19.2173 -36.3869
ltibia 17.177
lfoot -13.0245 4.19749
ltoes -12.5836
1067
root -13.5615 16.4141 -7.22655 1085.95 33.6959 -0.681244
lowerback 6.82802 -10.3157 -10.3802
upperback 2.20224 -14.3513 -0.234049
thorax 1.01216 -7.28273 5.87642
lowerneck -7.42051 -8.0224 -8.08729
upperneck 17.6229 -11.9463 10.9565
head 7.79468 -5.38738 3.77682
rclavicle -2.22639e-014 1.11319e-014
rhumerus -42.4241 23.3354 -65.7969
rradius 50.3485
rwrist -5.55039
rhand -22.7403 8.80014
rfingers 7.12502
rthumb 3.69387 -21.1476
lclavicle -2.22639e-014 1.11319e-014
lhumerus 36.56 -41.3969 48.7321
lradius 79.6472
lwrist 19.8862
lhand -11.2361 14.0995
lfingers 7.12502
lthumb 14.7931 43.5515
rfemur -43.5022 -10.9683 38.7172
rtibia 54.615
rfoot -26.262 5.09085
rtoes -24.8442
lfemur 3.19583 20.2035 -36.8501
ltibia 16.048
lfoot -11.1989 2.16352
ltoes -13.0359
